<?xml version="1.0" encoding="UTF-8" standalone="no"?>
<!-- Created with Inkscape (http://www.inkscape.org/) -->

<svg
   width="210mm"
   height="297mm"
   viewBox="0 0 210 297"
   version="1.1"
   id="svg5"
   inkscape:version="1.2.2 (b0a8486541, 2022-12-01)"
   sodipodi:docname="level-shifter.svg"
   xmlns:inkscape="http://www.inkscape.org/namespaces/inkscape"
   xmlns:sodipodi="http://sodipodi.sourceforge.net/DTD/sodipodi-0.dtd"
   xmlns="http://www.w3.org/2000/svg"
   xmlns:svg="http://www.w3.org/2000/svg">
  <sodipodi:namedview
     id="namedview7"
     pagecolor="#ffffff"
     bordercolor="#000000"
     borderopacity="0.25"
     inkscape:showpageshadow="2"
     inkscape:pageopacity="0.0"
     inkscape:pagecheckerboard="0"
     inkscape:deskcolor="#d1d1d1"
     inkscape:document-units="mm"
     showgrid="true"
     inkscape:zoom="11.313709"
     inkscape:cx="10.429825"
     inkscape:cy="35.090174"
     inkscape:window-width="2560"
     inkscape:window-height="1440"
     inkscape:window-x="0"
     inkscape:window-y="0"
     inkscape:window-maximized="1"
     inkscape:current-layer="layer1">
    <inkscape:grid
       type="xygrid"
       id="grid9"
       units="mm"
       spacingx="10"
       spacingy="10" />
  </sodipodi:namedview>
  <defs
     id="defs2">
    
    
    
    
    
    
    
    
    
    
    
    
    
    
    
    
    
    
    
    
    
    
    
    
    
    
    
    
    
    
    
    
    
    
    
    
    
    
    
    
    
    
    
    
    
    
    
    
    
    
    
  </defs>
  <g
     inkscape:label="Layer 1"
     inkscape:groupmode="layer"
     id="layer1">
    <path
       id="path4"
       d="M 0,0 V 16 H 14 V 0 Z m 1.6552184,15.275987 c -0.3870803,0 -0.70378233,-0.3167 -0.70378233,-0.703778 0,-0.387078 0.31670203,-0.703778 0.70378233,-0.703778 0.3870802,0 0.7037822,0.3167 0.7037822,0.703778 0,0.387078 -0.316702,0.703778 -0.7037822,0.703778 z m 2.5336162,0 c -0.3870804,0 -0.7037824,-0.3167 -0.7037824,-0.703778 0,-0.387078 0.316702,-0.703778 0.7037824,-0.703778 0.38708,0 0.703782,0.3167 0.703782,0.703778 0,0.387078 -0.316702,0.703778 -0.703782,0.703778 z m 2.533616,0 c -0.38708,0 -0.703782,-0.3167 -0.703782,-0.703778 0,-0.387078 0.316702,-0.703778 0.703782,-0.703778 0.38708,0 0.703782,0.3167 0.703782,0.703778 0,0.387078 -0.316702,0.703778 -0.703782,0.703778 z m 2.533616,0 c -0.38708,0 -0.703782,-0.3167 -0.703782,-0.703778 0,-0.387078 0.316702,-0.703778 0.703782,-0.703778 0.387081,0 0.703783,0.3167 0.703783,0.703778 0,0.387078 -0.316702,0.703778 -0.703783,0.703778 z m 2.5336174,0 c -0.387081,0 -0.703783,-0.3167 -0.703783,-0.703778 0,-0.387078 0.316702,-0.703778 0.703783,-0.703778 0.38708,0 0.703782,0.3167 0.703782,0.703778 0,0.387078 -0.316702,0.703778 -0.703782,0.703778 z M 2.1190715,2.1633087 c -0.387081,0 -0.703783,-0.3167 -0.703783,-0.703778 0,-0.387078 0.316702,-0.70377897 0.703783,-0.70377897 0.38708,0 0.703782,0.31670097 0.703782,0.70377897 0,0.387078 -0.316702,0.703778 -0.703782,0.703778 z m 2.533616,0 c -0.38708,0 -0.703782,-0.3167 -0.703782,-0.703778 0,-0.387078 0.316702,-0.70377897 0.703782,-0.70377897 0.3870797,0 0.7037817,0.31670097 0.7037817,0.70377897 0,0.387078 -0.316702,0.703778 -0.7037817,0.703778 z m 2.5336157,0 c -0.38708,0 -0.703782,-0.3167 -0.703782,-0.703778 0,-0.387078 0.316702,-0.70377897 0.703782,-0.70377897 0.38708,0 0.703782,0.31670097 0.703782,0.70377897 0,0.387078 -0.316702,0.703778 -0.703782,0.703778 z m 2.533616,0 c -0.38708,0 -0.703782,-0.3167 -0.703782,-0.703778 0,-0.387078 0.316702,-0.70377897 0.703782,-0.70377897 0.3870808,0 0.7037828,0.31670097 0.7037828,0.70377897 0,0.387078 -0.316702,0.703778 -0.7037828,0.703778 z m 2.5336168,0 c -0.387081,0 -0.703783,-0.3167 -0.703783,-0.703778 0,-0.387078 0.316702,-0.70377897 0.703783,-0.70377897 0.38708,0 0.703782,0.31670097 0.703782,0.70377897 0,0.387078 -0.316702,0.703778 -0.703782,0.703778 z M 1.1238576,6.5284494 c 0,-0.703778 0.527837,-1.266801 1.231619,-1.266801 0.703782,0 1.266808,0.527834 1.266808,1.231612 0,0.703779 -0.527837,1.266801 -1.231619,1.266801 h -0.03519 c -0.668593,0 -1.231619,-0.563022 -1.231618,-1.231612 z"
       fill="#672e58"
       stroke-width="0.351889"
       sodipodi:nodetypes="cccccssssssssssssssssssssssssssssssssssssssssssssssssssssssss" />
    <g
       id="g15068"
       transform="matrix(0,2.0298618,-1.4121715,0,16.948163,-3.932938)">
      <rect
         width="0.87972784"
         gorn="0.1.10.0"
         height="0.45745587"
         y="7.1433387"
         id="rect462"
         x="6.1229053"
         fill="#9a916c"
         stroke-width="0.351889" />
      <rect
         width="0.87972784"
         gorn="0.1.11.0"
         height="0.45745587"
         y="6.228435"
         id="rect464"
         x="6.1229053"
         fill="#9a916c"
         stroke-width="0.351889" />
      <rect
         width="0.87972784"
         gorn="0.1.12.0"
         height="0.45745587"
         y="5.4190946"
         id="rect466"
         x="6.1229053"
         fill="#9a916c"
         stroke-width="0.351889" />
      <rect
         width="0.87972784"
         gorn="0.1.13.0"
         height="0.45745587"
         y="4.539372"
         id="rect468"
         x="6.1229053"
         fill="#9a916c"
         stroke-width="0.351889" />
      <rect
         width="0.91491693"
         gorn="0.1.14.0"
         height="0.45745587"
         y="4.539372"
         id="rect470"
         x="4.4338288"
         fill="#9a916c"
         stroke-width="0.351889" />
      <rect
         width="0.91491693"
         gorn="0.1.15.0"
         height="0.45745587"
         y="5.4190946"
         id="rect472"
         x="4.4338288"
         fill="#9a916c"
         stroke-width="0.351889" />
      <rect
         width="0.91491693"
         gorn="0.1.16.0"
         height="0.45745587"
         y="6.228435"
         id="rect474"
         x="4.4338288"
         fill="#9a916c"
         stroke-width="0.351889" />
      <rect
         width="0.91491693"
         gorn="0.1.17.0"
         height="0.45745587"
         y="7.1433387"
         id="rect476"
         x="4.4338288"
         fill="#9a916c"
         stroke-width="0.351889" />
      <rect
         width="1.5835102"
         gorn="0.1.18.0.0.0"
         height="0.63340044"
         y="7.0025964"
         id="rect475"
         x="4.926476"
         fill="#dcdcdc"
         stroke-width="0.351889" />
      <rect
         width="1.5835102"
         gorn="0.1.18.0.0.1"
         height="0.49264479"
         y="6.1932549"
         id="rect477"
         x="4.926476"
         fill="#dcdcdc"
         stroke-width="0.351889" />
      <rect
         width="1.5835102"
         gorn="0.1.18.0.0.2"
         height="0.49264479"
         y="5.4190946"
         id="rect479"
         x="4.926476"
         fill="#dcdcdc"
         stroke-width="0.351889" />
      <rect
         width="1.5835102"
         gorn="0.1.18.0.0.3"
         height="0.63340044"
         y="4.4689889"
         id="rect481"
         x="4.926476"
         fill="#dcdcdc"
         stroke-width="0.351889" />
      <rect
         width="0.98529518"
         gorn="0.1.18.0.0.4"
         height="3.2021914"
         y="4.4689889"
         id="rect483"
         x="5.2079902"
         fill="#303030"
         stroke-width="0.351889" />
    </g>
    <g
       id="g15251"
       transform="translate(5.9251093,0.95139191)">
      <rect
         width="0.59821492"
         gorn="0.1.29.0"
         height="0.59821153"
         y="6.02003"
         id="rect494"
         x="5.3846493"
         fill="#9a916c"
         stroke-width="0.351889" />
      <rect
         width="0.59821492"
         gorn="0.1.30.0"
         height="0.59821153"
         y="7.0405169"
         id="rect4423"
         x="5.3846493"
         fill="#9a916c"
         stroke-width="0.351889" />
      <path
         id="path504-2"
         gorn="0.1.31.0.0"
         d="M 5.4550297,7.21646 V 6.407115 c 0,-0.07038 0.03519,-0.105567 0.105567,-0.105567 h 0.281513 c 0.07038,0 0.105567,0.03519 0.105567,0.105567 v 0 0.809345 c 0,0.07038 -0.03519,0.105566 -0.105567,0.105566 v 0 h -0.281513 c -0.07038,0 -0.105567,-0.03519 -0.105567,-0.105566 z"
         fill="#dcdcdc"
         stroke-width="0.351889" />
      <rect
         x="5.4550285"
         id="rect506-2"
         y="6.583065"
         height="0.49264479"
         gorn="0.1.31.0.1"
         width="0.49264759"
         fill="#333333"
         stroke-width="0.351889" />
    </g>
    <g
       id="g15202"
       transform="rotate(-93.573378,11.282711,4.7071934)">
      <g
         id="g15208"
         transform="rotate(3.4379954,133.24146,-12.119971)">
        <rect
           width="0.59821492"
           gorn="0.1.29.0"
           height="0.59821153"
           y="8.3501682"
           id="rect494-5"
           x="5.5104594"
           fill="#9a916c"
           stroke-width="0.351889" />
        <rect
           width="0.59821492"
           gorn="0.1.30.0"
           height="0.59821153"
           y="9.3706551"
           id="rect4423-6"
           x="5.5104594"
           fill="#9a916c"
           stroke-width="0.351889" />
        <path
           id="path504-2-9"
           gorn="0.1.31.0.0"
           d="m 5.5808398,9.5465982 v -0.809345 c 0,-0.07038 0.03519,-0.105567 0.105567,-0.105567 h 0.281513 c 0.07038,0 0.105567,0.03519 0.105567,0.105567 v 0 0.809345 c 0,0.07038 -0.03519,0.105566 -0.105567,0.105566 v 0 h -0.281513 c -0.07038,0 -0.105567,-0.03519 -0.105567,-0.105566 z"
           fill="#dcdcdc"
           stroke-width="0.351889" />
        <rect
           x="5.5808387"
           id="rect506-2-3"
           y="8.9132032"
           height="0.49264479"
           gorn="0.1.31.0.1"
           width="0.49264759"
           fill="#333333"
           stroke-width="0.351889" />
      </g>
    </g>
    <g
       id="g15196"
       transform="rotate(91.417101,7.0833011,5.0817984)">
      <rect
         width="0.59821492"
         gorn="0.1.29.0"
         height="0.59821153"
         y="2.9851804"
         id="rect494-5-7"
         x="5.8440404"
         fill="#9a916c"
         stroke-width="0.351889" />
      <rect
         width="0.59821492"
         gorn="0.1.30.0"
         height="0.59821153"
         y="4.0056672"
         id="rect4423-6-4"
         x="5.8440404"
         fill="#9a916c"
         stroke-width="0.351889" />
      <path
         id="path504-2-9-5"
         gorn="0.1.31.0.0"
         d="m 5.9144206,4.1816105 v -0.809345 c 0,-0.07038 0.03519,-0.105567 0.105567,-0.105567 h 0.281513 c 0.07038,0 0.105567,0.03519 0.105567,0.105567 v 0 0.809345 c 0,0.07038 -0.03519,0.105566 -0.105567,0.105566 v 0 h -0.281513 c -0.07038,0 -0.105567,-0.03519 -0.105567,-0.105566 z"
         fill="#dcdcdc"
         stroke-width="0.351889" />
      <rect
         x="5.9144197"
         id="rect506-2-3-2"
         y="3.5482154"
         height="0.49264479"
         gorn="0.1.31.0.1"
         width="0.49264759"
         fill="#333333"
         stroke-width="0.351889" />
    </g>
    <text
       font-size="0.937272px"
       id="text69"
       transform="matrix(0.99997414,-0.00679241,0.00679245,0.99997973,0,0)"
       x="1.3073046"
       y="3.3196957"
       font-family="DroidSans"
       fill="#ffffff"
       stroke-width="0.351889">GND</text>
    <text
       font-size="0.937272px"
       id="text69-8"
       transform="matrix(0.99997414,-0.00679241,0.00679245,0.99997973,0,0)"
       x="6.4042826"
       y="7.964231"
       font-family="DroidSans"
       fill="#ffffff"
       stroke-width="0.351889">TXS0102</text>
    <text
       gorn="0.1.35.0.0.0"
       font-size="0.937272px"
       id="text18-2"
       transform="matrix(0.99978319,0.0206878,-0.02068792,0.99978878,0,0)"
       x="1.1649575"
       y="13.244604"
       font-family="DroidSans"
       fill="#ffffff"
       stroke-width="0.351889">GND</text>
    <text
       font-size="0.937272px"
       id="text164"
       transform="matrix(0.99970366,0.02422811,-0.02422825,0.99970925,0,0)"
       x="4.2509394"
       y="3.1639471"
       font-family="DroidSans"
       fill="#ffffff"
       stroke-width="0.351889"
       inkscape:transform-center-x="-4.6394432"
       inkscape:transform-center-y="0.16822504">G</text>
    <text
       font-size="0.937272px"
       id="text164-4"
       transform="matrix(0.99970366,0.02422811,-0.02422825,0.99970925,0,0)"
       x="6.7193012"
       y="3.1440058"
       font-family="DroidSans"
       fill="#ffffff"
       stroke-width="0.351889"
       inkscape:transform-center-x="-4.6394432"
       inkscape:transform-center-y="0.16822504">VB</text>
    <text
       font-size="0.937272px"
       id="text164-4-7"
       transform="matrix(0.99970366,0.02422811,-0.02422825,0.99970925,0,0)"
       x="9.1758614"
       y="3.2013438"
       font-family="DroidSans"
       fill="#ffffff"
       stroke-width="0.351889"
       inkscape:transform-center-x="-4.6394432"
       inkscape:transform-center-y="0.16822504">B1</text>
    <text
       font-size="0.937272px"
       id="text164-4-7-4"
       transform="matrix(0.99970366,0.02422811,-0.02422825,0.99970925,0,0)"
       x="11.910162"
       y="3.1019983"
       font-family="DroidSans"
       fill="#ffffff"
       stroke-width="0.351889"
       inkscape:transform-center-x="-4.6394432"
       inkscape:transform-center-y="0.16822504">B2</text>
    <text
       font-size="0.937272px"
       id="text164-4-7-4-4"
       transform="matrix(0.99970366,0.02422811,-0.02422825,0.99970925,0,0)"
       x="3.9339557"
       y="13.244133"
       font-family="DroidSans"
       fill="#ffffff"
       stroke-width="0.351889"
       inkscape:transform-center-x="-4.6394432"
       inkscape:transform-center-y="0.16822504">OE</text>
    <text
       font-size="0.937272px"
       id="text164-4-7-4-4-3"
       transform="matrix(0.99970366,0.02422811,-0.02422825,0.99970925,0,0)"
       x="6.4104743"
       y="13.269096"
       font-family="DroidSans"
       fill="#ffffff"
       stroke-width="0.351889"
       inkscape:transform-center-x="-4.6394432"
       inkscape:transform-center-y="0.16822504">VA</text>
    <text
       font-size="0.937272px"
       id="text164-4-7-4-4-3-0"
       transform="matrix(0.99970366,0.02422811,-0.02422825,0.99970925,0,0)"
       x="8.988699"
       y="13.154617"
       font-family="DroidSans"
       fill="#ffffff"
       stroke-width="0.351889"
       inkscape:transform-center-x="-4.6394432"
       inkscape:transform-center-y="0.16822504">A1</text>
    <text
       font-size="0.937272px"
       id="text164-4-7-4-4-3-0-7"
       transform="matrix(0.99970366,0.02422811,-0.02422825,0.99970925,0,0)"
       x="11.60728"
       y="13.204647"
       font-family="DroidSans"
       fill="#ffffff"
       stroke-width="0.351889"
       inkscape:transform-center-x="-4.6394432"
       inkscape:transform-center-y="0.16822504">A2</text>
    <text
       font-size="0.937275px"
       id="text179"
       x="-9.234354"
       y="13.329096"
       font-family="DroidSans"
       fill="#ffffff"
       stroke-width="0.35189"
       transform="rotate(-89.445619)">WCMCU</text>
    <ellipse
       id="connector0pin-4"
       cy="14.572211"
       gorn="0.1.1"
       cx="1.6552184"
       rx="0.70378232"
       ry="0.70357972"
       fill="none"
       stroke="#9a916c"
       stroke-width="0.381" />
    <circle
       id="connector1pin"
       cy="14.572211"
       gorn="0.1.2"
       cx="4.1888351"
       r="0.70357972"
       fill="none"
       stroke="#9a916c"
       stroke-width="0.381"
       inkscape:label="connector1pin-5" />
    <circle
       id="connector2pin"
       cy="14.572211"
       gorn="0.1.3"
       cx="6.7318459"
       r="0.70357972"
       fill="none"
       stroke="#9a916c"
       stroke-width="0.381" />
    <circle
       id="connector3pin"
       cy="14.572211"
       gorn="0.1.4"
       cx="9.2718458"
       r="0.70357972"
       fill="none"
       stroke="#9a916c"
       stroke-width="0.381" />
    <circle
       id="connector4pin"
       cy="14.572211"
       gorn="0.1.5"
       cx="11.811846"
       r="0.70357972"
       fill="none"
       stroke="#9a916c"
       stroke-width="0.381" />
    <circle
       id="connector5pin"
       cy="1.3981024"
       gorn="0.1.6"
       cx="2.1024585"
       r="0.70357972"
       fill="none"
       stroke="#9a916c"
       stroke-width="0.381" />
    <circle
       id="connector6pin"
       cy="1.3971667"
       gorn="0.1.7"
       cx="4.5177088"
       r="0.70357972"
       fill="none"
       stroke="#9a916c"
       stroke-width="0.381" />
    <ellipse
       cy="6.5231962"
       gorn="0.1.7"
       cx="2.4511769"
       fill="none"
       stroke="#9a916c"
       stroke-width="0.675916"
       rx="1.294297"
       ry="1.2037287"
       id="ellipse15814" />
    <circle
       id="connector7pin"
       cy="1.4511833"
       gorn="0.1.8"
       cx="7.2103066"
       r="0.70357972"
       fill="none"
       stroke="#9a916c"
       stroke-width="0.381" />
    <circle
       id="connector8pin"
       cy="1.4279799"
       gorn="0.1.6"
       cx="9.6758766"
       r="0.70357972"
       fill="none"
       stroke="#9a916c"
       stroke-width="0.381" />
    <circle
       id="connector9pin"
       cy="1.4474409"
       gorn="0.1.7"
       cx="12.333264"
       r="0.70357972"
       fill="none"
       stroke="#9a916c"
       stroke-width="0.381" />
    <text
       xml:space="preserve"
       style="font-size:3.175px;fill:#4f004f;fill-opacity:1;stroke-width:0.264583"
       x="8.1380825"
       y="7.8214574"
       id="text15645"><tspan
         sodipodi:role="line"
         id="tspan15643"
         style="stroke-width:0.264583"></tspan></text>
  </g>
</svg>
