<?xml version="1.0" encoding="UTF-8" standalone="no"?>
<!-- Created with Inkscape (http://www.inkscape.org/) -->

<svg
   width="14mm"
   height="16.000002mm"
   viewBox="0 0 14 16.000002"
   version="1.1"
   id="svg5"
   inkscape:version="1.2.2 (b0a8486541, 2022-12-01)"
   sodipodi:docname="level-shifter.svg"
   xmlns:inkscape="http://www.inkscape.org/namespaces/inkscape"
   xmlns:sodipodi="http://sodipodi.sourceforge.net/DTD/sodipodi-0.dtd"
   xmlns="http://www.w3.org/2000/svg"
   xmlns:svg="http://www.w3.org/2000/svg">
  <sodipodi:namedview
     id="namedview7"
     pagecolor="#ffffff"
     bordercolor="#000000"
     borderopacity="0.25"
     inkscape:showpageshadow="2"
     inkscape:pageopacity="0.0"
     inkscape:pagecheckerboard="0"
     inkscape:deskcolor="#d1d1d1"
     inkscape:document-units="mm"
     showgrid="true"
     inkscape:zoom="11.313709"
     inkscape:cx="10.429825"
     inkscape:cy="35.090174"
     inkscape:window-width="2560"
     inkscape:window-height="1440"
     inkscape:window-x="0"
     inkscape:window-y="0"
     inkscape:window-maximized="1"
     inkscape:current-layer="layer1">
    <inkscape:grid
       type="xygrid"
       id="grid9"
       units="mm"
       spacingx="10"
       spacingy="10" />
  </sodipodi:namedview>
  <defs
     id="defs2" />
  <g
     inkscape:label="Layer 1"
     inkscape:groupmode="layer"
     id="layer1">
    <path
       id="path4"
       d="M 0,0 V 16 H 14 V 0 Z m 1.6552184,15.275987 c -0.3870803,0 -0.70378233,-0.3167 -0.70378233,-0.703778 0,-0.387078 0.31670203,-0.703778 0.70378233,-0.703778 0.3870802,0 0.7037822,0.3167 0.7037822,0.703778 0,0.387078 -0.316702,0.703778 -0.7037822,0.703778 z m 2.5336162,0 c -0.3870804,0 -0.7037824,-0.3167 -0.7037824,-0.703778 0,-0.387078 0.316702,-0.703778 0.7037824,-0.703778 0.38708,0 0.703782,0.3167 0.703782,0.703778 0,0.387078 -0.316702,0.703778 -0.703782,0.703778 z m 2.533616,0 c -0.38708,0 -0.703782,-0.3167 -0.703782,-0.703778 0,-0.387078 0.316702,-0.703778 0.703782,-0.703778 0.38708,0 0.703782,0.3167 0.703782,0.703778 0,0.387078 -0.316702,0.703778 -0.703782,0.703778 z m 2.533616,0 c -0.38708,0 -0.703782,-0.3167 -0.703782,-0.703778 0,-0.387078 0.316702,-0.703778 0.703782,-0.703778 0.387081,0 0.703783,0.3167 0.703783,0.703778 0,0.387078 -0.316702,0.703778 -0.703783,0.703778 z m 2.5336174,0 c -0.387081,0 -0.703783,-0.3167 -0.703783,-0.703778 0,-0.387078 0.316702,-0.703778 0.703783,-0.703778 0.38708,0 0.703782,0.3167 0.703782,0.703778 0,0.387078 -0.316702,0.703778 -0.703782,0.703778 z M 2.1190715,2.1633087 c -0.387081,0 -0.703783,-0.3167 -0.703783,-0.703778 0,-0.387078 0.316702,-0.70377897 0.703783,-0.70377897 0.38708,0 0.703782,0.31670097 0.703782,0.70377897 0,0.387078 -0.316702,0.703778 -0.703782,0.703778 z m 2.533616,0 c -0.38708,0 -0.703782,-0.3167 -0.703782,-0.703778 0,-0.387078 0.316702,-0.70377897 0.703782,-0.70377897 0.3870797,0 0.7037817,0.31670097 0.7037817,0.70377897 0,0.387078 -0.316702,0.703778 -0.7037817,0.703778 z m 2.5336157,0 c -0.38708,0 -0.703782,-0.3167 -0.703782,-0.703778 0,-0.387078 0.316702,-0.70377897 0.703782,-0.70377897 0.38708,0 0.703782,0.31670097 0.703782,0.70377897 0,0.387078 -0.316702,0.703778 -0.703782,0.703778 z m 2.533616,0 c -0.38708,0 -0.703782,-0.3167 -0.703782,-0.703778 0,-0.387078 0.316702,-0.70377897 0.703782,-0.70377897 0.3870808,0 0.7037828,0.31670097 0.7037828,0.70377897 0,0.387078 -0.316702,0.703778 -0.7037828,0.703778 z m 2.5336168,0 c -0.387081,0 -0.703783,-0.3167 -0.703783,-0.703778 0,-0.387078 0.316702,-0.70377897 0.703783,-0.70377897 0.38708,0 0.703782,0.31670097 0.703782,0.70377897 0,0.387078 -0.316702,0.703778 -0.703782,0.703778 z M 1.1238576,6.5284494 c 0,-0.703778 0.527837,-1.266801 1.231619,-1.266801 0.703782,0 1.266808,0.527834 1.266808,1.231612 0,0.703779 -0.527837,1.266801 -1.231619,1.266801 h -0.03519 c -0.668593,0 -1.231619,-0.563022 -1.231618,-1.231612 z"
       fill="#672e58"
       stroke-width="0.351889"
       sodipodi:nodetypes="cccccssssssssssssssssssssssssssssssssssssssssssssssssssssssss"
       inkscape:export-filename="path4.svg"
       inkscape:export-xdpi="96"
       inkscape:export-ydpi="96" />
    <g
       id="g15068"
       transform="matrix(0,2.0298618,-1.4121715,0,16.948163,-3.932938)">
      <rect
         width="0.87972784"
         gorn="0.1.10.0"
         height="0.45745587"
         y="7.1433387"
         id="rect462"
         x="6.1229053"
         fill="#9a916c"
         stroke-width="0.351889" />
      <rect
         width="0.87972784"
         gorn="0.1.11.0"
         height="0.45745587"
         y="6.228435"
         id="rect464"
         x="6.1229053"
         fill="#9a916c"
         stroke-width="0.351889" />
      <rect
         width="0.87972784"
         gorn="0.1.12.0"
         height="0.45745587"
         y="5.4190946"
         id="rect466"
         x="6.1229053"
         fill="#9a916c"
         stroke-width="0.351889" />
      <rect
         width="0.87972784"
         gorn="0.1.13.0"
         height="0.45745587"
         y="4.539372"
         id="rect468"
         x="6.1229053"
         fill="#9a916c"
         stroke-width="0.351889" />
      <rect
         width="0.91491693"
         gorn="0.1.14.0"
         height="0.45745587"
         y="4.539372"
         id="rect470"
         x="4.4338288"
         fill="#9a916c"
         stroke-width="0.351889" />
      <rect
         width="0.91491693"
         gorn="0.1.15.0"
         height="0.45745587"
         y="5.4190946"
         id="rect472"
         x="4.4338288"
         fill="#9a916c"
         stroke-width="0.351889" />
      <rect
         width="0.91491693"
         gorn="0.1.16.0"
         height="0.45745587"
         y="6.228435"
         id="rect474"
         x="4.4338288"
         fill="#9a916c"
         stroke-width="0.351889" />
      <rect
         width="0.91491693"
         gorn="0.1.17.0"
         height="0.45745587"
         y="7.1433387"
         id="rect476"
         x="4.4338288"
         fill="#9a916c"
         stroke-width="0.351889" />
      <rect
         width="1.5835102"
         gorn="0.1.18.0.0.0"
         height="0.63340044"
         y="7.0025964"
         id="rect475"
         x="4.926476"
         fill="#dcdcdc"
         stroke-width="0.351889" />
      <rect
         width="1.5835102"
         gorn="0.1.18.0.0.1"
         height="0.49264479"
         y="6.1932549"
         id="rect477"
         x="4.926476"
         fill="#dcdcdc"
         stroke-width="0.351889" />
      <rect
         width="1.5835102"
         gorn="0.1.18.0.0.2"
         height="0.49264479"
         y="5.4190946"
         id="rect479"
         x="4.926476"
         fill="#dcdcdc"
         stroke-width="0.351889" />
      <rect
         width="1.5835102"
         gorn="0.1.18.0.0.3"
         height="0.63340044"
         y="4.4689889"
         id="rect481"
         x="4.926476"
         fill="#dcdcdc"
         stroke-width="0.351889" />
      <rect
         width="0.98529518"
         gorn="0.1.18.0.0.4"
         height="3.2021914"
         y="4.4689889"
         id="rect483"
         x="5.2079902"
         fill="#303030"
         stroke-width="0.351889" />
    </g>
    <g
       id="g15251"
       transform="translate(5.9251093,0.95139191)">
      <rect
         width="0.59821492"
         gorn="0.1.29.0"
         height="0.59821153"
         y="6.02003"
         id="rect494"
         x="5.3846493"
         fill="#9a916c"
         stroke-width="0.351889" />
      <rect
         width="0.59821492"
         gorn="0.1.30.0"
         height="0.59821153"
         y="7.0405169"
         id="rect4423"
         x="5.3846493"
         fill="#9a916c"
         stroke-width="0.351889" />
      <path
         id="path504-2"
         gorn="0.1.31.0.0"
         d="M 5.4550297,7.21646 V 6.407115 c 0,-0.07038 0.03519,-0.105567 0.105567,-0.105567 h 0.281513 c 0.07038,0 0.105567,0.03519 0.105567,0.105567 v 0 0.809345 c 0,0.07038 -0.03519,0.105566 -0.105567,0.105566 v 0 h -0.281513 c -0.07038,0 -0.105567,-0.03519 -0.105567,-0.105566 z"
         fill="#dcdcdc"
         stroke-width="0.351889" />
      <rect
         x="5.4550285"
         id="rect506-2"
         y="6.583065"
         height="0.49264479"
         gorn="0.1.31.0.1"
         width="0.49264759"
         fill="#333333"
         stroke-width="0.351889" />
    </g>
    <g
       id="g15202"
       transform="rotate(-93.573378,11.282711,4.7071934)">
      <g
         id="g15208"
         transform="rotate(3.4379954,133.24146,-12.119971)">
        <rect
           width="0.59821492"
           gorn="0.1.29.0"
           height="0.59821153"
           y="8.3501682"
           id="rect494-5"
           x="5.5104594"
           fill="#9a916c"
           stroke-width="0.351889" />
        <rect
           width="0.59821492"
           gorn="0.1.30.0"
           height="0.59821153"
           y="9.3706551"
           id="rect4423-6"
           x="5.5104594"
           fill="#9a916c"
           stroke-width="0.351889" />
        <path
           id="path504-2-9"
           gorn="0.1.31.0.0"
           d="m 5.5808398,9.5465982 v -0.809345 c 0,-0.07038 0.03519,-0.105567 0.105567,-0.105567 h 0.281513 c 0.07038,0 0.105567,0.03519 0.105567,0.105567 v 0 0.809345 c 0,0.07038 -0.03519,0.105566 -0.105567,0.105566 v 0 h -0.281513 c -0.07038,0 -0.105567,-0.03519 -0.105567,-0.105566 z"
           fill="#dcdcdc"
           stroke-width="0.351889" />
        <rect
           x="5.5808387"
           id="rect506-2-3"
           y="8.9132032"
           height="0.49264479"
           gorn="0.1.31.0.1"
           width="0.49264759"
           fill="#333333"
           stroke-width="0.351889" />
      </g>
    </g>
    <g
       id="g15196"
       transform="rotate(91.417101,7.0833011,5.0817984)">
      <rect
         width="0.59821492"
         gorn="0.1.29.0"
         height="0.59821153"
         y="2.9851804"
         id="rect494-5-7"
         x="5.8440404"
         fill="#9a916c"
         stroke-width="0.351889" />
      <rect
         width="0.59821492"
         gorn="0.1.30.0"
         height="0.59821153"
         y="4.0056672"
         id="rect4423-6-4"
         x="5.8440404"
         fill="#9a916c"
         stroke-width="0.351889" />
      <path
         id="path504-2-9-5"
         gorn="0.1.31.0.0"
         d="m 5.9144206,4.1816105 v -0.809345 c 0,-0.07038 0.03519,-0.105567 0.105567,-0.105567 h 0.281513 c 0.07038,0 0.105567,0.03519 0.105567,0.105567 v 0 0.809345 c 0,0.07038 -0.03519,0.105566 -0.105567,0.105566 v 0 h -0.281513 c -0.07038,0 -0.105567,-0.03519 -0.105567,-0.105566 z"
         fill="#dcdcdc"
         stroke-width="0.351889" />
      <rect
         x="5.9144197"
         id="rect506-2-3-2"
         y="3.5482154"
         height="0.49264479"
         gorn="0.1.31.0.1"
         width="0.49264759"
         fill="#333333"
         stroke-width="0.351889" />
    </g>
    <g
       aria-label="GND"
       transform="matrix(0.99997414,-0.00679241,0.00679245,0.99997973,0,0)"
       id="text69"
       style="font-size:0.937272px;font-family:DroidSans;fill:#ffffff;stroke-width:0.351889">
      <path
         d="m 1.5922353,3.3290684 q -0.093727,0 -0.148089,-0.052487 Q 1.3897846,3.224094 1.3897846,3.1322413 V 2.8229415 q 0,-0.091853 0.054362,-0.1443398 0.054362,-0.052487 0.148089,-0.052487 0.091853,0 0.1462144,0.053424 0.054362,0.052487 0.054362,0.1434026 H 1.708457 q 0,-0.058111 -0.03093,-0.089041 -0.029993,-0.031867 -0.085292,-0.031867 -0.055299,0 -0.087166,0.03093 -0.03093,0.03093 -0.03093,0.089041 v 0.310237 q 0,0.058111 0.03093,0.089978 0.031867,0.031867 0.087166,0.031867 0.055299,0 0.085292,-0.031867 0.03093,-0.031867 0.03093,-0.089978 V 3.0385141 H 1.5697408 v -0.076856 h 0.2230707 v 0.1705835 q 0,0.090915 -0.054362,0.1443399 -0.054362,0.052487 -0.1462142,0.052487 z"
         id="path16011" />
      <path
         d="M 1.9540227,3.3196957 V 2.6354871 h 0.1124726 l 0.2090117,0.585795 q -0.00187,-0.023432 -0.00469,-0.057173 -0.00187,-0.034679 -0.00375,-0.07217 -9.373e-4,-0.038428 -9.373e-4,-0.07217 v -0.384282 h 0.081543 V 3.3196957 H 2.2352043 L 2.0271299,2.7339007 q 0.00187,0.022495 0.00375,0.057174 0.00187,0.033742 0.00281,0.07217 0.00187,0.037491 0.00187,0.07217 v 0.3842815 z"
         id="path16013" />
      <path
         d="M 2.5182608,3.3196957 V 2.6354871 h 0.1771444 q 0.066546,0 0.1143472,0.025306 0.048738,0.025306 0.074982,0.071233 0.027181,0.045926 0.027181,0.1087235 v 0.2727462 q 0,0.062797 -0.027181,0.1096608 -0.026244,0.045926 -0.074982,0.071233 -0.047801,0.025306 -0.1143472,0.025306 z m 0.084354,-0.074982 h 0.09279 q 0.06186,0 0.096539,-0.034679 0.035616,-0.034679 0.035616,-0.096539 v -0.272746 q 0,-0.060923 -0.035616,-0.095602 -0.034679,-0.034679 -0.096539,-0.034679 h -0.09279 z"
         id="path16015" />
    </g>
    <g
       aria-label="TXS0102"
       transform="matrix(0.99997414,-0.00679241,0.00679245,0.99997973,0,0)"
       id="text69-8"
       style="font-size:0.937272px;font-family:DroidSans;fill:#ffffff;stroke-width:0.351889">
      <path
         d="M 6.6432869,7.964231 V 7.3568788 H 6.4558325 v -0.076856 h 0.4592633 v 0.076856 H 6.7276414 V 7.964231 Z"
         id="path16063" />
      <path
         d="M 7.004137,7.964231 7.2009641,7.6174404 7.014447,7.2800224 h 0.097476 l 0.105912,0.2024508 q 0.00844,0.015934 0.016871,0.034679 0.00937,0.017808 0.014996,0.028118 0.00469,-0.01031 0.013122,-0.028118 0.00937,-0.018746 0.017808,-0.034679 L 7.3884185,7.2800224 h 0.09279 L 7.2946913,7.6118167 7.4915185,7.964231 H 7.3949794 L 7.2778204,7.7467839 q -0.00844,-0.015934 -0.017808,-0.033742 -0.00844,-0.018745 -0.013122,-0.029993 -0.00469,0.011247 -0.014059,0.029055 -0.00844,0.017808 -0.016871,0.033742 L 7.0978642,7.964231 Z"
         id="path16065" />
      <path
         d="m 7.8139404,7.9736037 q -0.099351,0 -0.158399,-0.052487 -0.059048,-0.052487 -0.059048,-0.1443399 h 0.084354 q 0,0.057174 0.036554,0.089978 0.036554,0.031867 0.096539,0.031867 0.058111,0 0.09279,-0.033742 0.034679,-0.033742 0.034679,-0.088104 0,-0.04124 -0.022495,-0.071233 -0.021557,-0.03093 -0.062797,-0.042177 L 7.7520804,7.6343113 Q 7.6874087,7.6155658 7.6499178,7.567765 7.6133642,7.5190268 7.6133642,7.4534178 q 0,-0.054362 0.024369,-0.095602 0.024369,-0.04124 0.068421,-0.063734 0.044052,-0.023432 0.1012254,-0.023432 0.058111,0 0.1021626,0.023432 0.044989,0.022495 0.070295,0.063734 0.025306,0.040303 0.025306,0.093727 h -0.084354 q 0,-0.046864 -0.031867,-0.075919 -0.031867,-0.029993 -0.081543,-0.029993 -0.049675,0 -0.080605,0.029993 -0.03093,0.029055 -0.03093,0.075919 0,0.037491 0.019683,0.064672 0.02062,0.026244 0.057174,0.036554 l 0.106849,0.029993 q 0.068421,0.018745 0.1059118,0.071233 0.038428,0.05155 0.038428,0.1227826 0,0.089978 -0.057174,0.1434026 -0.057174,0.053425 -0.1527753,0.053425 z"
         id="path16067" />
      <path
         d="m 8.3725548,7.9736037 q -0.094665,0 -0.1509008,-0.054362 Q 8.166355,7.8639429 8.166355,7.7720903 V 7.4721632 q 0,-0.091853 0.055299,-0.1462144 0.056236,-0.055299 0.1509008,-0.055299 0.094665,0 0.1499635,0.055299 0.056236,0.054362 0.056236,0.1462144 v 0.2999271 q 0,0.060923 -0.025306,0.106849 -0.025306,0.044989 -0.07217,0.070295 -0.045926,0.024369 -0.1087235,0.024369 z m 0,-0.07217 q 0.056236,0 0.089978,-0.035616 0.034679,-0.036554 0.034679,-0.093727 V 7.4721632 q 0,-0.057174 -0.034679,-0.09279 -0.033742,-0.036554 -0.089978,-0.036554 -0.056236,0 -0.090915,0.036554 -0.033742,0.035616 -0.033742,0.09279 v 0.2999271 q 0,0.057173 0.033742,0.093727 0.034679,0.035616 0.090915,0.035616 z m 0,-0.2277571 q -0.025306,0 -0.04124,-0.014059 -0.014996,-0.014059 -0.014996,-0.040303 0,-0.025306 0.014996,-0.038428 0.015934,-0.014059 0.04124,-0.014059 0.025306,0 0.040303,0.014059 0.015934,0.013122 0.015934,0.038428 0,0.026244 -0.015934,0.040303 -0.014996,0.014059 -0.040303,0.014059 z"
         id="path16069" />
      <path
         d="M 8.7380913,7.964231 V 7.8873747 H 8.9236712 V 7.3531297 L 8.7380913,7.4918459 V 7.3953069 L 8.8927412,7.2800224 h 0.1152845 v 0.6073523 h 0.151838 v 0.076856 z"
         id="path16071" />
      <path
         d="m 9.4972821,7.9736037 q -0.094665,0 -0.1509008,-0.054362 Q 9.2910823,7.8639427 9.2910823,7.77209 V 7.4721632 q 0,-0.091853 0.055299,-0.1462144 0.056236,-0.055299 0.1509008,-0.055299 0.094664,0 0.1499635,0.055299 0.056236,0.054362 0.056236,0.1462144 v 0.2999271 q 0,0.060923 -0.025306,0.106849 -0.025306,0.044989 -0.07217,0.070295 -0.045926,0.024369 -0.1087235,0.024369 z m 0,-0.07217 q 0.056236,0 0.089978,-0.035616 0.034679,-0.036554 0.034679,-0.093727 V 7.4721632 q 0,-0.057174 -0.034679,-0.09279 -0.033742,-0.036554 -0.089978,-0.036554 -0.056236,0 -0.090915,0.036554 -0.033742,0.035616 -0.033742,0.09279 v 0.2999271 q 0,0.057173 0.033742,0.093727 0.034679,0.035616 0.090915,0.035616 z m 0,-0.2277571 q -0.025306,0 -0.04124,-0.014059 -0.014996,-0.014059 -0.014996,-0.040303 0,-0.025306 0.014996,-0.038428 0.015934,-0.014059 0.04124,-0.014059 0.025306,0 0.040303,0.014059 0.015934,0.013122 0.015934,0.038428 0,0.026244 -0.015934,0.040303 -0.014996,0.014059 -0.040303,0.014059 z"
         id="path16073" />
      <path
         d="M 9.8590692,7.964231 V 7.8864374 L 10.086826,7.6427467 q 0.04968,-0.052487 0.0703,-0.093727 0.02062,-0.04124 0.02062,-0.080605 0,-0.056236 -0.0328,-0.089041 -0.03187,-0.033742 -0.08717,-0.033742 -0.05717,0 -0.090916,0.034679 -0.032804,0.033742 -0.032804,0.091853 H 9.849702 Q 9.852512,7.3793737 9.90875,7.325012 9.964986,7.27065 10.057776,7.27065 q 0.09466,0 0.149963,0.053425 0.05624,0.053425 0.05624,0.1452772 0,0.048738 -0.02718,0.1030999 -0.02624,0.054362 -0.09092,0.1218454 l -0.1846418,0.193078 h 0.3111738 v 0.076856 z"
         id="path16075" />
    </g>
    <g
       aria-label="GND"
       transform="matrix(0.99978319,0.0206878,-0.02068792,0.99978878,0,0)"
       id="text18-2"
       style="font-size:0.937272px;font-family:DroidSans;fill:#ffffff;stroke-width:0.351889">
      <path
         d="m 1.4498882,13.253977 q -0.093727,0 -0.148089,-0.05249 -0.054362,-0.05249 -0.054362,-0.14434 v -0.3093 q 0,-0.09185 0.054362,-0.14434 0.054362,-0.05249 0.148089,-0.05249 0.091853,0 0.1462144,0.05342 0.054362,0.05249 0.054362,0.143403 h -0.084354 q 0,-0.05811 -0.03093,-0.08904 -0.029993,-0.03187 -0.085292,-0.03187 -0.055299,0 -0.087166,0.03093 -0.03093,0.03093 -0.03093,0.08904 v 0.310237 q 0,0.05811 0.03093,0.08998 0.031867,0.03187 0.087166,0.03187 0.055299,0 0.085292,-0.03187 0.03093,-0.03187 0.03093,-0.08998 v -0.09373 H 1.4273937 v -0.07686 h 0.2230707 v 0.170584 q 0,0.09092 -0.054362,0.14434 -0.054362,0.05249 -0.1462144,0.05249 z"
         id="path16018" />
      <path
         d="m 1.8116756,13.244604 v -0.684208 h 0.1124726 l 0.2090117,0.585795 q -0.00187,-0.02343 -0.00469,-0.05717 -0.00187,-0.03468 -0.00375,-0.07217 -9.373e-4,-0.03843 -9.373e-4,-0.07217 V 12.5604 h 0.081543 v 0.684208 H 2.0928572 L 1.8847828,12.658809 q 0.00187,0.0225 0.00375,0.05717 0.00187,0.03374 0.00281,0.07217 0.00187,0.03749 0.00187,0.07217 V 13.2446 Z"
         id="path16020" />
      <path
         d="m 2.3759137,13.244604 v -0.684208 h 0.1771444 q 0.066546,0 0.1143472,0.02531 0.048738,0.02531 0.074982,0.07123 0.027181,0.04593 0.027181,0.108723 v 0.272746 q 0,0.0628 -0.027181,0.109661 -0.026244,0.04593 -0.074982,0.07123 -0.047801,0.02531 -0.1143472,0.02531 z m 0.084354,-0.07498 h 0.09279 q 0.06186,0 0.096539,-0.03468 0.035616,-0.03468 0.035616,-0.09654 v -0.272746 q 0,-0.06092 -0.035616,-0.0956 -0.034679,-0.03468 -0.096539,-0.03468 h -0.09279 z"
         id="path16022" />
    </g>
    <g
       aria-label="G"
       transform="matrix(0.99970366,0.02422811,-0.02422825,0.99970925,0,0)"
       id="text164"
       inkscape:transform-center-x="-4.6394432"
       inkscape:transform-center-y="0.16822504"
       style="font-size:0.937272px;font-family:DroidSans;fill:#ffffff;stroke-width:0.351889">
      <path
         d="m 4.5358701,3.1733198 q -0.093727,0 -0.148089,-0.052487 -0.054362,-0.052487 -0.054362,-0.1443399 v -0.3093 q 0,-0.091853 0.054362,-0.1443399 0.054362,-0.052487 0.148089,-0.052487 0.091853,0 0.1462144,0.053424 0.054362,0.052487 0.054362,0.1434026 h -0.084354 q 0,-0.058111 -0.03093,-0.089041 -0.029993,-0.031867 -0.085292,-0.031867 -0.055299,0 -0.087166,0.03093 -0.03093,0.03093 -0.03093,0.089041 v 0.310237 q 0,0.058111 0.03093,0.089978 0.031867,0.031867 0.087166,0.031867 0.055299,0 0.085292,-0.031867 0.03093,-0.031867 0.03093,-0.089978 V 2.8827655 H 4.5133755 V 2.8059095 H 4.7364463 V 2.976493 q 0,0.090915 -0.054362,0.1443399 -0.054362,0.052487 -0.1462142,0.052487 z"
         id="path16025" />
    </g>
    <g
       aria-label="VB"
       transform="matrix(0.99970366,0.02422811,-0.02422825,0.99970925,0,0)"
       id="text164-4"
       inkscape:transform-center-x="-4.6394432"
       inkscape:transform-center-y="0.16822504"
       style="font-size:0.937272px;font-family:DroidSans;fill:#ffffff;stroke-width:0.351889">
      <path
         d="M 6.942372,3.1440058 6.7661648,2.4597972 h 0.086229 l 0.1171591,0.4658242 q 0.012185,0.048738 0.019683,0.089978 0.00844,0.04124 0.012185,0.062797 0.00375,-0.021557 0.012185,-0.062797 0.00937,-0.042177 0.021557,-0.090915 L 7.1476345,2.4597972 h 0.087166 L 7.0576564,3.1440058 Z"
         id="path16048" />
      <path
         d="M 7.3688311,3.1440058 V 2.4597972 h 0.1940153 q 0.093727,0 0.1462144,0.046864 0.053425,0.046864 0.053425,0.1302808 0,0.052487 -0.033742,0.094664 -0.032805,0.042177 -0.086229,0.052487 v 0.00281 q 0.040303,0.00469 0.070295,0.028118 0.03093,0.023432 0.047801,0.059985 0.017808,0.035616 0.017808,0.078731 0,0.088103 -0.054362,0.1396535 -0.053425,0.050613 -0.1471517,0.050613 z m 0.08248,-0.392717 h 0.1105981 q 0.054362,0 0.085292,-0.029055 0.031867,-0.029056 0.031867,-0.078731 0,-0.049675 -0.03093,-0.078731 -0.03093,-0.029056 -0.085292,-0.029056 H 7.451311 Z m 0,0.3167979 h 0.1162218 q 0.059048,0 0.09279,-0.03093 0.034679,-0.031867 0.034679,-0.086229 0,-0.056236 -0.034679,-0.090915 -0.033742,-0.035616 -0.09279,-0.035616 H 7.451311 Z"
         id="path16050" />
    </g>
    <g
       aria-label="B1"
       transform="matrix(0.99970366,0.02422811,-0.02422825,0.99970925,0,0)"
       id="text164-4-7"
       inkscape:transform-center-x="-4.6394432"
       inkscape:transform-center-y="0.16822504"
       style="font-size:0.937272px;font-family:DroidSans;fill:#ffffff;stroke-width:0.351889">
      <path
         d="M 9.3503718,3.1291397 V 2.4449311 h 0.1940153 q 0.093727,0 0.1462145,0.046864 0.053424,0.046864 0.053424,0.1302808 0,0.052487 -0.033742,0.094665 -0.032804,0.042177 -0.086229,0.052487 v 0.00281 q 0.040303,0.00469 0.070295,0.028118 0.03093,0.023432 0.047801,0.059985 0.017808,0.035616 0.017808,0.078731 0,0.088104 -0.054362,0.1396536 -0.053425,0.050613 -0.1471517,0.050613 z m 0.08248,-0.392717 h 0.1105981 q 0.054362,0 0.085292,-0.029055 0.031867,-0.029056 0.031867,-0.078731 0,-0.049675 -0.03093,-0.078731 -0.03093,-0.029056 -0.085292,-0.029056 H 9.4328518 Z m 0,0.3167979 h 0.1162217 q 0.059048,0 0.09279,-0.03093 0.034679,-0.031867 0.034679,-0.086229 0,-0.056236 -0.034679,-0.090915 -0.033742,-0.035616 -0.09279,-0.035616 H 9.4328518 Z"
         id="path16053" />
      <path
         d="M 9.9099236,3.1291397 V 3.0522834 H 10.095503 V 2.5180383 L 9.9099236,2.6567546 V 2.5602156 L 10.064573,2.4449311 h 0.115285 v 0.6073523 h 0.151838 v 0.076856 z"
         id="path16055" />
    </g>
    <g
       aria-label="B2"
       transform="matrix(0.99970366,0.02422811,-0.02422825,0.99970925,0,0)"
       id="text164-4-7-4"
       inkscape:transform-center-x="-4.6394432"
       inkscape:transform-center-y="0.16822504"
       style="font-size:0.937272px;font-family:DroidSans;fill:#ffffff;stroke-width:0.351889">
      <path
         d="M 11.997328,3.1019983 V 2.4177898 h 0.194016 q 0.09373,0 0.146214,0.046864 0.05343,0.046864 0.05343,0.1302808 0,0.052487 -0.03374,0.094664 -0.0328,0.042177 -0.08623,0.052487 v 0.00281 q 0.0403,0.00469 0.07029,0.028118 0.03093,0.023432 0.0478,0.059985 0.01781,0.035616 0.01781,0.078731 0,0.088104 -0.05436,0.1396535 -0.05342,0.050613 -0.147151,0.050613 z m 0.08248,-0.3927169 h 0.110598 q 0.05436,0 0.08529,-0.029056 0.03187,-0.029055 0.03187,-0.078731 0,-0.049675 -0.03093,-0.078731 -0.03093,-0.029055 -0.08529,-0.029055 H 12.07981 Z m 0,0.3167979 h 0.116222 q 0.05905,0 0.09279,-0.03093 0.03468,-0.031867 0.03468,-0.086229 0,-0.056236 -0.03468,-0.090915 -0.03374,-0.035616 -0.09279,-0.035616 h -0.116222 z"
         id="path16058" />
      <path
         d="M 12.553131,3.1019983 V 3.0242048 L 12.780888,2.780514 q 0.04968,-0.052487 0.0703,-0.093727 0.02062,-0.04124 0.02062,-0.080605 0,-0.056236 -0.0328,-0.089041 -0.03187,-0.033742 -0.08717,-0.033742 -0.05717,0 -0.09092,0.034679 -0.0328,0.033742 -0.0328,0.091853 h -0.08436 q 0.0028,-0.09279 0.05905,-0.1471517 0.05624,-0.054362 0.149027,-0.054362 0.09466,0 0.149963,0.053424 0.05624,0.053425 0.05624,0.1452772 0,0.048738 -0.02718,0.1030999 -0.02624,0.054362 -0.09092,0.1218454 l -0.184642,0.193078 h 0.311174 v 0.076856 z"
         id="path16060" />
    </g>
    <g
       aria-label="OE"
       transform="matrix(0.99970366,0.02422811,-0.02422825,0.99970925,0,0)"
       id="text164-4-7-4-4"
       inkscape:transform-center-x="-4.6394432"
       inkscape:transform-center-y="0.16822504"
       style="font-size:0.937272px;font-family:DroidSans;fill:#ffffff;stroke-width:0.351889">
      <path
         d="m 4.2151373,13.253506 q -0.091853,0 -0.1452772,-0.05342 -0.053424,-0.05342 -0.053424,-0.152775 v -0.290554 q 0,-0.09935 0.053424,-0.152776 0.053425,-0.05342 0.1452772,-0.05342 0.091853,0 0.1452771,0.05342 0.053425,0.05343 0.053425,0.151838 v 0.291492 q 0,0.09935 -0.053425,0.152775 -0.053425,0.05342 -0.1452771,0.05342 z m 0,-0.07592 q 0.055299,0 0.084354,-0.03093 0.029993,-0.03187 0.029993,-0.08998 v -0.3093 q 0,-0.05811 -0.029993,-0.08904 -0.029056,-0.03187 -0.084354,-0.03187 -0.054362,0 -0.084354,0.03187 -0.029993,0.03093 -0.029993,0.08904 v 0.3093 q 0,0.05811 0.029993,0.08998 0.029993,0.03093 0.084354,0.03093 z"
         id="path16028" />
      <path
         d="m 4.5900464,13.244133 v -0.684209 h 0.3936543 v 0.07686 H 4.6734636 v 0.211823 h 0.2774326 v 0.07498 H 4.6734636 v 0.243691 h 0.3102371 v 0.07686 z"
         id="path16030" />
    </g>
    <g
       aria-label="VA"
       transform="matrix(0.99970366,0.02422811,-0.02422825,0.99970925,0,0)"
       id="text164-4-7-4-4-3"
       inkscape:transform-center-x="-4.6394432"
       inkscape:transform-center-y="0.16822504"
       style="font-size:0.937272px;font-family:DroidSans;fill:#ffffff;stroke-width:0.351889">
      <path
         d="M 6.633545,13.269096 6.4573379,12.584888 h 0.086229 l 0.117159,0.465824 q 0.012185,0.04874 0.019683,0.08998 0.00844,0.04124 0.012185,0.0628 0.00375,-0.02156 0.012185,-0.0628 0.00937,-0.04218 0.021557,-0.09091 l 0.1124726,-0.464887 h 0.087166 l -0.1771444,0.684208 z"
         id="path16033" />
      <path
         d="m 7.0197015,13.269096 0.1780816,-0.684208 h 0.11341 l 0.1771444,0.684208 h -0.085292 l -0.044989,-0.18183 h -0.207137 l -0.044989,0.18183 z m 0.1480889,-0.253063 h 0.1724581 l -0.052487,-0.210886 q -0.014996,-0.05999 -0.023432,-0.100288 -0.00844,-0.0403 -0.01031,-0.05249 -0.00187,0.01218 -0.01031,0.05249 -0.00844,0.0403 -0.023432,0.09935 z"
         id="path16035" />
    </g>
    <g
       aria-label="A1"
       transform="matrix(0.99970366,0.02422811,-0.02422825,0.99970925,0,0)"
       id="text164-4-7-4-4-3-0"
       inkscape:transform-center-x="-4.6394432"
       inkscape:transform-center-y="0.16822504"
       style="font-size:0.937272px;font-family:DroidSans;fill:#ffffff;stroke-width:0.351889">
      <path
         d="m 9.0355626,13.154617 0.1780816,-0.684208 h 0.11341 l 0.1771444,0.684208 h -0.085292 l -0.044989,-0.18183 h -0.207137 l -0.044989,0.18183 z m 0.1480889,-0.253063 h 0.1724581 l -0.052487,-0.210886 q -0.014996,-0.05999 -0.023432,-0.100288 -0.00844,-0.0403 -0.01031,-0.05249 -0.00187,0.01219 -0.01031,0.05249 -0.00844,0.0403 -0.023432,0.09935 z"
         id="path16038" />
      <path
         d="m 9.635417,13.154617 v -0.07686 H 9.8209969 V 12.543516 L 9.635417,12.682232 v -0.09654 l 0.1546499,-0.115284 h 0.1152844 v 0.607352 h 0.1518377 v 0.07686 z"
         id="path16040" />
    </g>
    <g
       aria-label="A2"
       transform="matrix(0.99970366,0.02422811,-0.02422825,0.99970925,0,0)"
       id="text164-4-7-4-4-3-0-7"
       inkscape:transform-center-x="-4.6394432"
       inkscape:transform-center-y="0.16822504"
       style="font-size:0.937272px;font-family:DroidSans;fill:#ffffff;stroke-width:0.351889">
      <path
         d="m 11.654143,13.204647 0.178082,-0.684209 h 0.11341 l 0.177144,0.684209 h -0.08529 l -0.04499,-0.181831 h -0.207138 l -0.04499,0.181831 z m 0.148089,-0.253063 H 11.97469 L 11.9222,12.740697 q -0.015,-0.05999 -0.02343,-0.100288 -0.0084,-0.0403 -0.01031,-0.05249 -0.0019,0.01218 -0.01031,0.05249 -0.0084,0.0403 -0.02343,0.09935 z"
         id="path16043" />
      <path
         d="m 12.250249,13.204647 v -0.07779 l 0.227757,-0.24369 q 0.04967,-0.05249 0.07029,-0.09373 0.02062,-0.04124 0.02062,-0.08061 0,-0.05624 -0.0328,-0.08904 -0.03187,-0.03374 -0.08717,-0.03374 -0.05717,0 -0.09092,0.03468 -0.0328,0.03374 -0.0328,0.09185 h -0.08435 q 0.0028,-0.09279 0.05905,-0.147151 0.05624,-0.05436 0.149026,-0.05436 0.09467,0 0.149964,0.05342 0.05624,0.05343 0.05624,0.145277 0,0.04874 -0.02718,0.1031 -0.02624,0.05436 -0.09092,0.121846 l -0.184643,0.193078 h 0.311175 v 0.07686 z"
         id="path16045" />
    </g>
    <g
       aria-label="WCMCU"
       transform="rotate(-89.445619)"
       id="text179"
       style="font-size:0.937275px;font-family:DroidSans;fill:#ffffff;stroke-width:0.35189">
      <path
         d="m -9.1340656,13.329096 -0.081543,-0.684211 h 0.077794 l 0.053425,0.506129 q 0.00375,0.03093 0.00562,0.06467 0.00187,0.0328 0.00281,0.05249 0.00187,-0.01968 0.00469,-0.05249 0.00375,-0.03374 0.0075,-0.06467 l 0.067484,-0.506129 h 0.090916 l 0.06186,0.506129 q 0.00375,0.03093 0.0075,0.06467 0.00375,0.0328 0.00562,0.05249 0.00187,-0.01968 0.00375,-0.05249 0.00281,-0.03374 0.00656,-0.06467 l 0.055299,-0.506129 h 0.074045 l -0.083418,0.684211 h -0.1059121 l -0.06186,-0.515501 q -0.00375,-0.03187 -0.00562,-0.06186 -0.00187,-0.03093 -0.00375,-0.0478 -0.00187,0.01687 -0.00375,0.0478 -0.00187,0.02999 -0.00656,0.06186 l -0.066546,0.515501 z"
         id="path16078" />
      <path
         d="m -8.383308,13.338469 q -0.093727,0 -0.1480894,-0.05249 -0.054362,-0.05249 -0.054362,-0.14434 V 12.83234 q 0,-0.09185 0.054362,-0.14434 0.054362,-0.05249 0.1480894,-0.05249 0.091853,0 0.1462149,0.05342 0.054362,0.05249 0.054362,0.143403 h -0.084355 q 0,-0.05811 -0.03093,-0.08904 -0.029993,-0.03187 -0.085292,-0.03187 -0.055299,0 -0.087167,0.03187 -0.03093,0.03093 -0.03093,0.08904 v 0.309301 q 0,0.05811 0.03093,0.08998 0.031867,0.03093 0.087167,0.03093 0.055299,0 0.085292,-0.03093 0.03093,-0.03187 0.03093,-0.08998 h 0.084355 q 0,0.09092 -0.054362,0.14434 -0.054362,0.05249 -0.1462149,0.05249 z"
         id="path16080" />
      <path
         d="m -8.0421395,13.329096 v -0.684211 h 0.1246576 l 0.087167,0.296179 0.090916,-0.296179 h 0.1246576 v 0.684211 h -0.081543 v -0.32336 q 0,-0.04593 9.372e-4,-0.104975 0.00187,-0.05998 0.00469,-0.120908 0.00281,-0.06092 0.00656,-0.109661 l -0.1105984,0.353352 h -0.073107 l -0.105912,-0.344917 q 0.0075,0.06936 0.01031,0.151839 0.00281,0.08248 0.00281,0.17527 v 0.32336 z"
         id="path16082" />
      <path
         d="m -7.2585772,13.338469 q -0.093727,0 -0.1480895,-0.05249 -0.054362,-0.05249 -0.054362,-0.14434 V 12.83234 q 0,-0.09185 0.054362,-0.14434 0.054362,-0.05249 0.1480895,-0.05249 0.091853,0 0.1462149,0.05342 0.054362,0.05249 0.054362,0.143403 h -0.084355 q 0,-0.05811 -0.03093,-0.08904 -0.029993,-0.03187 -0.085292,-0.03187 -0.055299,0 -0.087167,0.03187 -0.03093,0.03093 -0.03093,0.08904 v 0.309301 q 0,0.05811 0.03093,0.08998 0.031867,0.03093 0.087167,0.03093 0.055299,0 0.085292,-0.03093 0.03093,-0.03187 0.03093,-0.08998 h 0.084355 q 0,0.09092 -0.054362,0.14434 -0.054362,0.05249 -0.1462149,0.05249 z"
         id="path16084" />
      <path
         d="m -6.7037101,13.338469 q -0.095602,0 -0.1462149,-0.05249 -0.050613,-0.05342 -0.050613,-0.14434 v -0.496756 h 0.084355 v 0.496756 q 0,0.05624 0.027181,0.08904 0.028118,0.0328 0.085292,0.0328 0.056237,0 0.084355,-0.0328 0.028118,-0.0328 0.028118,-0.08904 v -0.496756 h 0.084355 v 0.496756 q 0,0.09185 -0.050613,0.14434 -0.049676,0.05249 -0.1462151,0.05249 z"
         id="path16086" />
    </g>
    <ellipse
       id="connector0pin"
       cy="14.572211"
       gorn="0.1.1"
       cx="1.6552184"
       rx="0.70378232"
       ry="0.70357972"
       fill="none"
       stroke="#9a916c"
       stroke-width="0.381" />
    <circle
       id="connector1pin"
       cy="14.572211"
       gorn="0.1.2"
       cx="4.1888351"
       r="0.70357972"
       fill="none"
       stroke="#9a916c"
       stroke-width="0.381"
       inkscape:label="connector1pin-5" />
    <circle
       id="connector2pin"
       cy="14.572211"
       gorn="0.1.3"
       cx="6.7318459"
       r="0.70357972"
       fill="none"
       stroke="#9a916c"
       stroke-width="0.381" />
    <circle
       id="connector3pin"
       cy="14.572211"
       gorn="0.1.4"
       cx="9.2718458"
       r="0.70357972"
       fill="none"
       stroke="#9a916c"
       stroke-width="0.381" />
    <circle
       id="connector4pin"
       cy="14.572211"
       gorn="0.1.5"
       cx="11.811846"
       r="0.70357972"
       fill="none"
       stroke="#9a916c"
       stroke-width="0.381" />
    <circle
       id="connector5pin"
       cy="1.3981024"
       gorn="0.1.6"
       cx="2.1024585"
       r="0.70357972"
       fill="none"
       stroke="#9a916c"
       stroke-width="0.381" />
    <circle
       id="connector6pin"
       cy="1.3971667"
       gorn="0.1.7"
       cx="4.5177088"
       r="0.70357972"
       fill="none"
       stroke="#9a916c"
       stroke-width="0.381" />
    <ellipse
       cy="6.5231962"
       gorn="0.1.7"
       cx="2.4511769"
       fill="none"
       stroke="#9a916c"
       stroke-width="0.675916"
       rx="1.294297"
       ry="1.2037287"
       id="ellipse16175" />
    <circle
       id="connector7pin"
       cy="1.4511833"
       gorn="0.1.8"
       cx="7.2103066"
       r="0.70357972"
       fill="none"
       stroke="#9a916c"
       stroke-width="0.381" />
    <circle
       id="connector8pin"
       cy="1.4279799"
       gorn="0.1.6"
       cx="9.6758766"
       r="0.70357972"
       fill="none"
       stroke="#9a916c"
       stroke-width="0.381" />
    <circle
       id="connector9pin"
       cy="1.4474409"
       gorn="0.1.7"
       cx="12.333264"
       r="0.70357972"
       fill="none"
       stroke="#9a916c"
       stroke-width="0.381" />
  </g>
</svg>
